<svg xmlns="http://www.w3.org/2000/svg" viewBox="0 0 1280 480"><defs><style>.cls-1{fill:#ee1e3a;}</style></defs><g id="BIG_WAVE_RED_ON_BLACK" data-name="BIG WAVE RED ON BLACK"><rect width="1280" height="480"/><path class="cls-1" d="M911,266.64c-.29,6.82.86,13.51,1.5,20.23a251.74,251.74,0,0,1,.25,46.1c-.53,6-1.12,12-3.54,17.71-4.22,9.87-11.24,16.34-21.84,19A102,102,0,0,1,851,371.83c-2-.22-2.56-.8-2.5-2.75.78-26.51.72-53,.32-79.54a396.94,396.94,0,0,0-2.16-39.87c-.22-1.95-1.25-2-2.51-2-5.61-.13-11.21-.27-16.82-.29-8.18,0-16.36.14-24.54,0-3.13,0-4.63,1.3-4.77,4.24-.37,7.82-.78,15.64-.95,23.46q-.62,28.42-1,56.84-.21,17.88,0,35.77c0,3.54-1.29,5.17-4.8,5.41-13,.92-25.95.49-38.22-4.53-6.13-2.52-9.68-7.79-12.41-13.68A46.92,46.92,0,0,1,737,342c-.37-2.47-.5-4.94-.76-7.42a3.51,3.51,0,0,0-.44-1.65,1.21,1.21,0,0,0-1.49-.36c-.72.33-.79,1.23-.86,1.94-.19,2.09-.44,4.13-.76,6.21-.36,2.39-.75,4.76-1.16,7.14-1.83,10.57-4,21.08-6.32,31.56-2.19,10.14-4,20.28-7.75,30-4.25,10.95-12.25,17.89-23.83,20.65-10.24,2.43-20.5,4.57-31.06,5.1-2.36.12-3.36-.52-3.63-2.94A515.43,515.43,0,0,0,649.51,377a205.33,205.33,0,0,0-11.34-34.94c-.11-.27-.4-.46-.66-.75-1.48,1-1.74,2.56-2.17,3.94-5.88,19.22-11.58,38.48-15.21,58.3-1.36,7.47-2.49,14.95-3.53,22.46-.22,1.62-.4,2.31-2.31,1.62-18.3-6.52-36.19-13.82-51.74-25.87a12.92,12.92,0,0,1-4.52-6.89,312.14,312.14,0,0,1-7.64-34.2c-5.72-32.25-9.13-64.8-12.86-97.29-2.66-23.2-4.22-46.53-5.95-69.84-.61-8.27-.63-16.54-1-24.8a9.7,9.7,0,0,1,3.81-8.31c16.13-12.64,33.1-23.91,52.29-31.45,5.1-2,6.5-.78,6.58,4.64.33,23,.29,46,1.71,69.05,1.27,20.32,3.56,40.51,5.35,60.77a32.49,32.49,0,0,0,.58,4,12.24,12.24,0,0,0,1.2,4c1-.87,1.51-2.71,1.87-3.94a34.14,34.14,0,0,0,.81-4c2.56-15.58,6.26-30.9,10.3-46.15a29.72,29.72,0,0,1,8.08-14.09c6-5.77,13.27-6.26,20.88-5.79,12,.73,18.22,9.92,21.42,21.16,1.45,5.11,2.72,10.27,3.9,15.44s2.27,10.39,3.38,15.59q.82,3.9,1.68,7.8c.4,1.83.8,3.67,1.36,5.47a6.79,6.79,0,0,0,1,2.47,1.27,1.27,0,0,0,1.9,0,3.56,3.56,0,0,0,.76-2.23c.39-6.76.89-13.52,1.36-20.28,1.7-24.14,3.21-48.3,5.18-72.42,1.07-13.11-1.67-25.56-5.09-38-2.13-7.76-4.36-15.49-6.5-23.25-1-3.68.34-5.11,4-4.2,19.25,4.76,36.71,13.47,53.76,23.44,7.14,4.18,10.12,9.6,10.94,17.28.67,6.33,1.74,12.62,1.89,19.76a23.41,23.41,0,0,0,1.84-8.21c2.07-18.52,6.65-36.52,11.05-54.57C760.6,91.43,768.73,85,778.49,80.38c17-8,35-8.58,53.21-6.49,9.07,1,17.46,4.17,25.6,8.11,5.66,2.74,9.93,6.66,12.47,12.64a206.64,206.64,0,0,1,8,23.77c.24.83.7,2.41,1.9,2.15a1.2,1.2,0,0,0,.75-.89,10.27,10.27,0,0,0,0-4.38c-.19-1.58-.29-3.19-.35-4.78-.1-2.66-.17-5.31-.19-8,0-5.3.07-10.6.37-15.89s.77-10.59,1.43-15.85q.65-5.11,1.53-10.19a10.48,10.48,0,0,1,4.43-6.8,68.89,68.89,0,0,1,19.48-10.22c12.13-4.27,24.39-8,37.4-8.42a21,21,0,0,1,4.19.19c4.37.76,5.16,2.12,3,6.08-6,10.93-7.72,22.93-8.85,35.07-1.92,20.49,0,40.87,2.24,61.21a510.25,510.25,0,0,0,10.82,64.16c2.77,11.58,5,23.3,9.46,34.42a28.34,28.34,0,0,0,1.39,2.82c1,1.89,2.34,3.2,4.65,3.09,2.5-.12,3.2-2,3.91-3.91,6.33-17.13,10.4-34.87,14.37-52.65,3.24-14.48,6-29.06,8.42-43.67,2.19-13.31,3-26.84,3.78-40.35.89-16.07-.35-32-2.21-47.88-.26-2.21,0-4.1,3.07-3.43a126.65,126.65,0,0,1,49.93,22.48A14.12,14.12,0,0,1,1058.81,85c-.12,12.86-.45,25.7-1.41,38.53-.07.91,0,1.83,0,2.65,13.41-9,28.63-11.27,44.23-11.79a218.89,218.89,0,0,1,29.42.6,93.94,93.94,0,0,1,24.2,5.37c2.42.92,4.28,2.85,6,4.81,9.26,10.87,16,23.29,21.74,36.26,1.58,3.57,1.21,3.84-2.51,3.21a270.78,270.78,0,0,0-66-2.53l-8.74.71c-2.67.23-4,1.73-4,4.37,0,21.22,0,42.44,0,63.66,0,3,.77,4,3.92,3.94,15.79-.16,31.57,0,47.36,0,1,0,2.1.21,3.15.2,2.27,0,2.89,1.13,2.88,3.31-.09,13.23,0,26.45-.06,39.68,0,4.14-.79,4.83-4.93,4.83-16,0-32,.08-48.08,0-3.14,0-4.28.76-4.23,4.11.32,20,.4,40.1.61,60.14,0,2.22.45,4.42.56,6.63.08,1.65,1.08,2.09,2.45,2.43a105.24,105.24,0,0,0,21.19,2.68c18.2.8,36.39,1.57,54.6,0,5.71-.49,7.09,1.41,4.79,6.82-3.41,8-6.64,16.09-10.92,23.74-4.19,7.48-8.34,14.94-13.51,21.79A4.34,4.34,0,0,1,1158,413a456,456,0,0,1-66.84.79,226,226,0,0,1-37.11-4.89c-6.92-1.55-10.63-5.61-10.64-12.71q-.12-60.69-.08-121.38c0-19.31,0-38.61,0-58.82-2.07,4.17-2.73,7.88-3.65,11.46a293.43,293.43,0,0,1-20,53.79,393.85,393.85,0,0,1-33.79,56.88,47.82,47.82,0,0,1-12.26,12.39c-4.87,3.28-14.08,2.19-19.3-2.25-4.11-3.51-6.44-8.32-9.18-12.74a449.89,449.89,0,0,1-23.45-43.4C917.75,283.8,915,275,911,266.64Zm-88.86-72v.05c5.38,0,10.76-.1,16.14,0,2.5.07,3-.93,2.63-3.16-.71-4.84-.86-9.79-1.88-14.56-4-18.72-7.81-37.5-13.74-55.74-.75-2.3-1.52-4.63-3.4-6.43-2.09-2-3.69-1.1-4.76.84a42.4,42.4,0,0,0-2.95,7.09,188.18,188.18,0,0,0-7.56,34.13q-2.37,17.17-3.3,34.51c-.13,2.31.42,3.38,3,3.28C811.62,194.53,816.89,194.66,822.15,194.66Z"/><path class="cls-1" d="M257.42,111.12c0-5.57,0-11.15,0-16.72,0-6.07,2.28-8.49,8.32-8.9a260.75,260.75,0,0,1,42.38.42c3.91.37,6.34,2.82,6.32,7.06-.09,22.23.26,44.46-.23,66.69-.36,16.5-.18,33-.22,49.5a1.52,1.52,0,0,0,.91,1.74c1.25-5.63,2.26-11.2,3.73-16.65,5-18.49,11.4-36.41,23.64-51.53,9.4-11.61,21.91-18.23,36.45-21.29,10.65-2.24,21.36-1.75,32.11-1.57,8.71.14,17.25,1,25.49,3.76,15.29,5.12,28.64,13.13,38,26.68a43.36,43.36,0,0,1-1.36,52c-11.59,14.37-35.56,12.87-46.41-.33-6.44-7.83-11.82-16.22-17.16-24.72-1.48-2.37-3-4.69-4.58-7-1.26-1.91-3-1.85-5-1.31-8.73,2.39-13.94,8.85-17.95,16.25-8.16,15.08-12.17,31.43-14.68,48.35a241.58,241.58,0,0,0-2.17,45.81c1,25.14,5.56,49.65,15.35,73,2.35,5.61,4.35,11.36,8.64,15.91,5.91,6.25,10.19,6.26,15.57-.39,9-11.15,13.36-24.26,15-38.28a87.31,87.31,0,0,0-1.7-31.66c-1.82-7.34-4.62-13.33-12.06-16.42a21.11,21.11,0,0,1-12-12.15c-3.13-8.2-3-16.8-1.15-25.18,1.3-5.92,6.86-7.15,11.91-7.29,28.66-.84,57.33-.13,86-.27,4.32,0,5.95,2.47,3.92,6.14-8,14.51-12.06,30.18-14.78,46.43-2.05,12.26-2.6,24.62-3.9,36.92-2.44,23-7.31,45.45-16.94,66.53-5.33,11.66-12.86,22-24.16,28.91-6.22,3.82-13,5.31-20.2,6.14-10.55,1.23-21,.71-31.5.07-21-1.26-36.18-11.61-46.39-29.86-9.37-16.73-13.92-35-18.1-53.48a159.67,159.67,0,0,0-4.12-15.84c0,14.09-.14,28.19.1,42.28.07,3.69-1.31,4.74-4.63,5.34-14.75,2.65-29.56,2-44.36,1-8.2-.55-8.18-.82-8.18-9.05V301.42c0-1.39,0-2.78,0-4.22-1.72.07-1.56,1.43-1.85,2.3-2.39,7.19-4.41,14.49-7.7,21.38-6.26,13.07-15,24-27.74,31.1-7.83,4.4-16.58,6.37-25.51,6.93-16.67,1-33.18-.29-48.91-6.2-16.14-6.06-29.23-15.94-38.11-31.29-9.32-16.1-11.72-33.79-13.72-51.69-2.87-25.62-3.22-51.35-3.12-77.08.07-20.34.44-40.68.94-61,.45-18.45,1.4-36.86,4.33-55.13a62.13,62.13,0,0,1,14.48-31.73,37.68,37.68,0,0,1,21-12.5c7-1.48,14.14-1.53,21.29-1.3a178,178,0,0,1,52.24,9.16C229.64,48.55,244.31,66.6,251.84,91,253.9,97.59,255.78,104.3,257.42,111.12ZM154.77,249.71c.13,3.14-.43,8.52.46,13.89s1.43,10.64,2.5,15.92a34.85,34.85,0,0,0,7,14.76c6.16,7.87,19.24,9.33,26.88,3.37,11.89-9.27,15-22.52,15.92-36.37.87-13.54-3.07-26.32-8.7-38.57C195,214.56,190.55,207,182.73,202a49.2,49.2,0,0,0-16-6.76c-2.73-.59-4.82-1.79-4.83-5,0-8.18-.37-16.36.49-24.53.32-3,1.82-4.8,4.88-4.88,6.58-.17,12.6-2.55,18.5-5,6.8-2.82,11.69-8.05,13.27-15.23a78.91,78.91,0,0,0-.52-35.81,18,18,0,0,0-9.8-12.53A44.78,44.78,0,0,0,172.52,88c-7.52-.65-12.71,3-15.45,10a29.53,29.53,0,0,0-2,8.14c-.79,9.43-1.1,18.87-1,28.34C154.39,172.19,154,209.84,154.77,249.71ZM257.31,135H257c-.67,2.59-1.43,5.16-2,7.78-3.27,15.53-9.26,29.43-23.15,38.55-2.31,1.51-.35,2.26.41,3.12,10.39,11.69,18.15,24.82,22.5,39.92.71,2.49.86,5.2,2.57,8.19Z"/></g></svg>