<svg xmlns="http://www.w3.org/2000/svg" viewBox="0 0 1280 876"><defs><style>.cls-1{fill:#ee1e3a;}</style></defs><g id="FULL_DRAWN_RED_ON_BLACK" data-name="FULL DRAWN RED ON BLACK"><rect width="1280" height="876"/><path class="cls-1" d="M748.55,782.6a44.3,44.3,0,0,1-7.69-1.58l-.55-.14c-3.43-.9-6.82-2-10.14-3.18-2.73-1-5.4-2.12-8-3.36a115.11,115.11,0,0,1-27.75-18.89c-3.92-3.53-4.25-8-4-12.59,2.28-46.28,1-92.6,1.35-138.9.17-26.47.15-53-1.08-79.41-.49-10.41-1.31-20.81-2.11-31.2-.19-2.43.48-3.74,2.81-4.69a453.59,453.59,0,0,1,96.72-26,33.14,33.14,0,0,1,24.16,5.49c2.06,1.39,4.06,2.87,6.09,4.3,1,.72,2,1.42,3.07,2.1.47.31,2.52,2.14,3.08,1.69a.64.64,0,0,0,.14-.21,8.12,8.12,0,0,0,.29-3.22c0-1.21,0-2.43,0-3.64q0-3.72,0-7.43,0-7.37,0-14.72V435.77c0-7,2-9.15,9.08-9.59a258.07,258.07,0,0,1,40.48.48c4,.38,6.31,2.83,6.31,7.16,0,20.86.15,41.73-.23,62.58-.39,21.55-.2,43.1-.12,64.65.09,26.13.29,52.26.37,78.4.07,22.21-.06,44.43.1,66.65,0,3.33-1.28,4.2-4.21,4.82-11.22,2.38-22.55,1.67-33.87,1.62-4.79,0-9.59-.49-14.39-.7-2.59-.11-3.61-1.07-3.59-4q.27-40.74.23-81.5c0-34.73-.16-69.46-.08-104.19,0-3.39-1-4.35-4.22-4.26a241.55,241.55,0,0,0-64.63,10.14c-8.29,2.54-8.41,2.57-8.46,11.18-.08,12.61.09,25.21.07,37.82,0,1.79.67,2.47,2.36,2.57a98.57,98.57,0,0,0,11.66.15c12.59-.73,25.15-1.71,37.63-3.6,3-.45,4.23.87,4.42,3.73,1,15.8.53,31.62.62,47.43,0,4.72-1.55,6.07-7.09,6.11-12.83.11-25.67.06-38.51.07-5.83,0-5.86,0-5.85,5.94,0,15.58-.14,31.16.4,46.74,1,29,1.88,57.94,4.34,86.84.08.91.12,1.83.13,2.74,0,1.79.08,4-1.5,5.17a9.43,9.43,0,0,1-3.65,1.36A14.35,14.35,0,0,1,748.55,782.6Z"/><path class="cls-1" d="M287.59,131.15c0-5.8,0-11.26,0-16.73,0-5.94,2.23-8.31,8.15-8.71a255.83,255.83,0,0,1,41.52.42c3.83.36,6.2,2.77,6.18,6.92-.09,21.78.26,43.55-.22,65.33-.36,16.16-.18,32.33-.22,48.49a1.87,1.87,0,0,0,.92,1.58c1.2-5.41,2.18-10.89,3.63-16.23,4.9-18.11,11.18-35.66,23.16-50.47C379.86,150.46,392,144,406.12,141c10.05-2.16,20.21-1.83,30.42-1.63,9,.17,17.82.87,26.34,3.74,15,5,28.05,12.88,37.22,26.16a42.52,42.52,0,0,1-1.38,50.91c-11.36,14-34.83,12.56-45.48-.42-6.37-7.76-11.69-16.09-17-24.52a53.43,53.43,0,0,1-3.18-4.87c-1.75-3.66-4.36-3.72-7.69-2.46-7.55,2.88-12.27,8.76-15.89,15.49-8,14.8-11.92,30.79-14.36,47.38A238.89,238.89,0,0,0,393,295.27c1,24.75,5.43,48.87,15.07,71.87,2.26,5.38,4.18,10.91,8.27,15.31,5.9,6.34,10.06,6.36,15.48-.25,7.6-9.26,11.64-20.16,13.8-31.77a85.06,85.06,0,0,0-1.7-40.1c-1.48-5.06-3.9-9.13-8.94-11.47-7.23-3.34-13-8.24-14.87-16.43a53.35,53.35,0,0,1-.33-20.46c.81-4.88,5.43-7.91,12.11-8.07,28.08-.71,56.16-.07,84.24-.2,4.34,0,5.75,2.47,3.52,6.42-9.65,17.09-13.39,35.9-15.72,55-1.74,14.18-1.9,28.56-4.54,42.62-3.14,16.77-6.92,33.46-14.43,48.89-5.51,11.29-12.68,21.48-23.76,28.26-6.21,3.8-13,5.24-20.16,6-11.47,1.17-22.85.65-34.25-.45-19-1.85-32-12.3-41.31-28.3-7.95-13.71-12.17-28.77-15.93-44-1.75-7.09-3.21-14.26-4.83-21.39a8.66,8.66,0,0,0-1.25-3c0,14-.11,28,.08,41.95,0,3.18-1.25,4.05-4,4.64-11.32,2.45-22.78,1.71-34.21,1.65-4.68,0-9.37-.45-14.05-.67-2.64-.13-3.83-1-3.81-4.11.17-23.5.09-47,.08-70.51v-3.6c-2.52,3.1-3.31,6.74-4.37,10.26-4.61,15.38-12.52,28.69-25.1,38.83-7.06,5.69-15.43,8.87-24.39,10.31-3.69.59-7.41.94-11.15,1.4.1,1.51,1.28,1.69,2.09,2.16,7,4.07,11.8,10.05,15.35,17.16a101.42,101.42,0,0,1,7.9,22.5,145,145,0,0,1,3.65,23.21c.74,12,.53,24.15.95,36.18,0-.39,1.2-1.89,1.42-2.28l1.7-3.07c1.09-2,2.19-3.93,3.35-5.87,10.88-18.19,27.12-27.95,48-30.72,11.72-1.55,23.33-1.63,34.76,1.62,16.74,4.76,27.78,16.31,36,31a128,128,0,0,1,8.54,18.77c2.21-2.64,4.05-5.22,6.26-7.42,8.73-8.69,19.48-13.52,31.42-15.92,23.93-4.82,47.06-2.37,69,8.39a60.76,60.76,0,0,1,16.46,11.68,57,57,0,0,1,11.1,16.12,55.23,55.23,0,0,1,3.29,8.6q.66,2.42,1.3,4.85c.22.81.43,1.62.65,2.43a10.8,10.8,0,0,0,.52,2c.31.66,1,.47,1.38-.07a4.24,4.24,0,0,0,.61-1.56c.58-2.53.94-5.11,1.6-7.62a50.44,50.44,0,0,1,2.53-7.27c3.24-7.5,8.82-12,16.65-14.12A117.89,117.89,0,0,1,571.69,481c15.09-1.07,30.21-1.08,45.34-.73,7.55.18,13.54,3.78,18.65,9,9.22,9.44,13.56,21.32,16.47,33.82.93,4-.54,5.18-4.74,4.62-21-2.79-42-2-63,.43-3.13.36-4.21,1.58-4.47,4.71-.84,10.19,0,20.36.06,30.54.1,10.53.59,21.06.67,31.58,0,3.31,1.07,4.28,4.41,4.15,14.42-.56,28.85-.85,43.28-1.23,5.71-.15,6.26.48,6,6.25-.6,12.25-1.21,24.5-1.67,36.76-.1,2.9-.76,4.08-4.11,4.12-14.21.18-28.41.82-42.62,1.13-2.91.06-4,.84-3.88,4q.28,7.51.55,15t.51,15.05q.26,7.53.49,15c.17,5,.29,10,.5,15a37,37,0,0,0,.55,5.14,3.26,3.26,0,0,0,.84,2,3.71,3.71,0,0,0,1.83.87,101.4,101.4,0,0,0,19.1,2c16.82.35,33.64.73,50.38-1.37,2.85-.36,3.6.3,2.68,3.27-4.89,15.76-10.58,31.16-18.92,45.48-2.17,3.73-4.84,5.72-9.43,6.09-19,1.58-38,0-57-.83-10.67-.49-21.33-1.43-32-2.43-4-.39-8.06-.9-12.08-1.46l-6.11-.85a13.47,13.47,0,0,0-6.06.22c-1.87.64-3.37,2-5,3.1-1.87,1.23-3.88,2.27-5.81,3.4-3.38,2-4.12,1.67-5.42-1.93-7.2-20-12.52-40.47-18.37-60.83q-10.06-35-20.22-70a48.53,48.53,0,0,0-7.61-15.32c-2.88-3.93-6.52-6.72-11.54-7.32-1.69-.2-3.09-.58-3.08-2.84,0-7.67-.35-15.36.29-23,.47-5.6,1.56-6.33,7.22-7.08a49.75,49.75,0,0,0,18.1-6.21,18.77,18.77,0,0,0,8.87-12.61c2.87-12.86,2.16-25.52-3.74-37.52a22.57,22.57,0,0,0-23-13.05,13.14,13.14,0,0,0-11.16,7.51c-2.33,4.58-3.07,9.55-3.29,14.63-1.17,27.26-.11,54.53-.24,81.8q-.15,32.31.56,64.61c.37,18,2.57,35.83,9.3,52.8a157.32,157.32,0,0,0,7.66,15.72,21.36,21.36,0,0,1,1.28,2.8c1.44,4,.25,5.86-4.08,6.07-4.05.19-8-.77-11.85-1.8-14.07-3.71-28.2-7.28-40.58-15.42-13.61-8.95-21.78-20.91-21.15-37.86.22-5.7,0-11.4,0-18-2.84,3.92-4.95,7.26-7.49,10.26-9.34,11.05-20.78,18.07-35.7,18.68-12.71.51-25.42,1.19-38.11,0a37.35,37.35,0,0,1-27.6-15.53c-11.84-16-18.82-34-21.94-53.57-.4-2.48-.89-5-1.39-7.69-3.92,1.45-6.82,4.21-10.08,6.36-10.06,6.62-20,13.32-31.69,17-4.54,1.43-4.55,1.41-4.55-3.26,0-21,.34-42-.09-62.94-.48-23.6.1-47.21-.34-70.81,0-2.29-.23-4.58-.42-6.86a2.11,2.11,0,0,0-1.52-2.08,1.93,1.93,0,0,0-2.23,1.22,24.5,24.5,0,0,0-1.73,3.71c-4.54,13.46-9,27-13.56,40.41-2.7,8-8.35,12-16.82,12.17-9.07.18-14-3.06-17.21-11.32-5.12-13-9.15-26.4-13.3-39.74a41.78,41.78,0,0,0-1.57-4.53c-.68-1.57-.75-4.17-3.21-3.74-2.29.41-2,2.88-2,4.6-.18,18-.95,36-.14,54,.49,10.87.34,21.77.73,32.65.74,21,3.55,41.34,14.8,59.66.41.66,1,1.43.45,2.2s-1.45.63-2.23.44C116,666,95.6,661.17,79.81,646c-10.44-10-15-22.43-15.56-36.64-.58-15.81-.06-31.61.35-47.43q.63-24.75,1.91-49.45C68,484.58,70.54,456.74,74,429a157.15,157.15,0,0,1,4.7-24.61,61.33,61.33,0,0,1,15.89-26.55c8.45-8.46,17.35-16.36,28.17-21.75,3.8-1.89,3.83-1.85,5,2.13l6.15,20.66q3.09,10.33,6.16,20.67t6.16,20.66l6.17,20.66c1,3.4,2,6.81,3,10.21s2.1,6.63,3,10a47.34,47.34,0,0,0,1.83,6.05c.45,1,1.53,2.36,2.58,1.13a2.77,2.77,0,0,0,.47-.94c.48-1.43.63-2.92,1.06-4.36.47-1.63.86-3.28,1.29-4.92q1.37-5.21,2.74-10.42l5.46-20.83q2.74-10.42,5.47-20.84t5.49-20.83q1.5-5.71,3-11.45c.66-2.48.17-3.19-2.43-3.84a71.51,71.51,0,0,1-33-18A74.46,74.46,0,0,1,132.54,317c-3.2-12.13-4.33-24.53-5.67-36.94-2.56-23.63-2.55-47.35-2.52-71.05,0-22.9.24-45.82,1.21-68.7.71-16.76,1.15-33.67,5.43-50,3.88-14.83,11.45-27.17,25.8-34.15,7.4-3.6,15.47-4,23.51-3.94a192.6,192.6,0,0,1,51.41,7.69c22.54,6.45,38.09,20.65,47.1,42.19a134.08,134.08,0,0,1,7.65,26A5.65,5.65,0,0,0,287.59,131.15Zm59,434.21A437.17,437.17,0,0,0,344.15,521c-1.89-18.67-10.9-33.27-24.85-45.16-4.15-3.54-8-2.79-11.13,1.6a70,70,0,0,0-7.77,13.35,127.43,127.43,0,0,0-10.51,45.61,571.83,571.83,0,0,0,1.28,71.34,130.38,130.38,0,0,0,12.17,45.58c2.72,5.67,5.45,11.41,10.33,15.69,3.85,3.36,6.5,3.35,10.27,0a28.17,28.17,0,0,0,6.33-7.64c6.9-12.71,12-26.1,13.39-40.54C345.47,602.05,347.34,583.21,346.63,565.36ZM186.35,264.19A169,169,0,0,0,190,295.9a33.39,33.39,0,0,0,6.87,14.43c6.12,7.68,18.88,9,26.35,3.1,11.51-9,14.58-21.93,15.48-35.34s-3.06-26.25-8.72-38.43c-3.61-7.74-7.94-14.94-15.38-19.72a48.39,48.39,0,0,0-15.68-6.68c-2.78-.62-4.93-1.76-4.93-5.09,0-7.9-.32-15.8.47-23.69.31-3.09,1.81-4.91,5-5,6.45-.17,12.35-2.5,18.11-4.94,6.74-2.86,11.45-8.11,13-15.33a78.74,78.74,0,0,0-.48-34.09c-1.32-5.71-4.34-10.16-9.86-12.86a43.43,43.43,0,0,0-15.86-4.09c-7.41-.57-12.36,3-15,10a28.18,28.18,0,0,0-1.91,7.64c-.79,9.35-1,18.71-1,28.1C186.41,190.67,186.35,227.43,186.35,264.19ZM527.57,630.75c-.06-1.35-.11-2.71-.17-4.07-.08-2-.13-4-.18-6-.08-3.32-.11-6.64-.2-10v-.21q-.16-4.49-.31-9c-.11-3-.28-5.93-.33-8.9,0-1.43,0-2.86,0-4.3a1.78,1.78,0,0,0-.6-1.25,1.36,1.36,0,0,0-1.35-.09,7,7,0,0,0-1.55,1.33c-6.29,5.82-12.53,11.7-18.78,17.55a6.7,6.7,0,0,0-1.89,8c4.8,12.57,9.42,25.21,14.22,37.78a137.4,137.4,0,0,0,7.07,16,5,5,0,0,0,1.82,2.14,2.1,2.1,0,0,0,3.24-1.82c.1-2.88-.11-5.81-.17-8.7,0-3.17-.09-6.33-.17-9.5C528.06,643.41,527.82,637.08,527.57,630.75ZM287.48,154.23h-.33c-.66,2.53-1.41,5.05-1.95,7.61-3.2,15.21-9.07,28.83-22.68,37.76-2.25,1.48-.35,2.22.4,3.07,10.18,11.44,17.78,24.3,22,39.09.7,2.44.85,5.09,2.52,8Z"/><path class="cls-1" d="M1071.22,146.1c9.15-7.49,20.11-9.59,31-10.91a181.15,181.15,0,0,1,52,1.1c9.76,1.65,17.82,5.6,23.43,14.4,6.17,9.68,12.08,19.43,16.62,30,1.23,2.85.38,3.32-2.4,2.84a261.6,261.6,0,0,0-65-2.55c-2.85.23-5.7.44-8.55.7-2.63.24-3.8,1.79-3.8,4.36,0,20.67,0,41.34,0,62,0,2.92.56,4.16,3.93,4.12,15.46-.18,30.92-.05,46.38,0,5.74,0,5.78,0,5.78,5.61,0,12.15,0,24.3,0,36.45,0,4.33-.73,5-4.92,5-15.7,0-31.4.1-47.1-.05-3.23,0-4.09,1-4,4.13.29,19.64,0,39.3.76,58.91.39,9.68-1.88,7.91,8.6,9.9,8.14,1.54,16.41,1.47,24.63,1.9a347.06,347.06,0,0,0,44.22-.39c4.51-.33,6.49,1.39,4.56,5.83-3.49,8-6.63,16.21-10.87,23.92-4,7.35-8.13,14.64-13.23,21.34a4.85,4.85,0,0,1-3.62,2.07c-12.17,1.73-24.44,1.5-36.65,1.56-21.86.11-43.72-.61-65.18-5.61-6.69-1.55-10.32-5.53-10.33-12.53q-.11-58.93-.08-117.86V234.52c-2.58,5.28-3.59,11-5.14,16.51-5.54,19.7-13.68,38.32-23,56.52A324,324,0,0,1,997.42,358c-4.86,6.34-10.92,11.1-20,9-6.32-1.48-9.75-6-13-11a435.93,435.93,0,0,1-24.69-44.32,213.41,213.41,0,0,1-10.09-24.38,19.23,19.23,0,0,0-1.89-4,67.61,67.61,0,0,0,.76,13.5,243.49,243.49,0,0,1,.9,51.63c-.52,5.8-1.06,11.56-3.35,17-4.14,9.83-11.07,16.23-21.57,18.86a100.62,100.62,0,0,1-35.64,2.08c-2.1-.23-2.39-1-2.34-2.79.73-26,.71-51.95.3-77.91-.21-12.9-.56-25.85-2.1-38.72-.2-1.63-.72-2.16-2.23-2.19-5.49-.07-11-.26-16.48-.29-8.12,0-16.25.12-24.38,0-2.85,0-4.25,1.15-4.54,3.91-.83,7.75-.76,15.55-1,23.32q-.66,27.84-1,55.68c-.14,11.68-.11,23.36,0,35,0,3.53-1.43,5-4.8,5.21-12.77.88-25.43.49-37.43-4.49-6-2.49-9.43-7.68-12.1-13.45a42.39,42.39,0,0,1-3.06-9.84,52.89,52.89,0,0,1-1.26-10.4,1.91,1.91,0,0,0-.24-1.21,1.35,1.35,0,0,0-1.14-.45,1.38,1.38,0,0,0-.7.19,1.5,1.5,0,0,0-.53,1.24c-.1,4.2-1.09,8.49-1.79,12.63q-1.11,6.51-2.42,13c-1.54,7.65-3.33,15.4-4.94,23.09s-2.87,15.08-5.56,22.42c-.32.87-.64,1.73-1,2.6-4.09,10.74-11.83,17.65-23.17,20.39-10.14,2.45-20.3,4.56-30.76,5.07-2.43.12-3.22-.72-3.47-3a505,505,0,0,0-9.27-54.09,204.2,204.2,0,0,0-11.35-34.83c-1.78.38-1.86,1.88-2.2,2.95-5.68,18.13-11,36.36-14.66,55-1.61,8.31-3,16.64-4,25-.16,1.33-.24,2.21-2,1.58-17.81-6.35-35.2-13.48-50.45-25.05-4.18-3.17-5.14-7.67-6.34-12.18-5.19-19.52-8.1-39.47-10.75-59.44-3.64-27.46-7.21-54.93-9.67-82.52-1.48-16.64-2.41-33.32-4-50-.78-8.21-.68-16.43-1-24.64a9.5,9.5,0,0,1,3.8-8.1c15.72-12.3,32.25-23.28,50.93-30.65,5.39-2.13,6.55-1,6.65,4.89.36,22.44.3,44.86,1.7,67.29,1.24,19.9,3.49,39.69,5.24,59.53a22.22,22.22,0,0,0,1.69,7.72c1.88-2.58,2.27-5.27,2.7-7.87,2.49-15.26,6.12-30.26,10.08-45.2,1.69-6.38,4.89-11.89,10.35-15.74s11.51-4.14,17.76-3.69c12,.87,17.8,9.18,21.15,20.55,4,13.57,6.43,27.61,9.56,41.43.2.88.46,1.73.73,2.58a6.37,6.37,0,0,0,.88,2.21.92.92,0,0,0,1,.25c1.44-.37,1.43-1.78,1.52-3,1.64-19.79,2.23-39.68,4.24-59.44,1.45-14.32,2.13-28.7,2.36-43.08.09-5.46-1.46-10.66-2.82-15.85-2.81-10.73-5.8-21.4-8.7-32.11-1-3.54.41-4.89,4-4,18.87,4.66,36,13.17,52.64,23a21.28,21.28,0,0,1,8.27,8.22c2.05,3.93,2.32,8.33,2.86,12.64.41,3.28.74,6.58,1,9.88l.15,2.44c0,.79,0,1.59.1,2.37,0,.09,0,.19.12.21s.16-.06.2-.13a4.71,4.71,0,0,0,.6-1.42,33.18,33.18,0,0,0,.91-4.75c.23-1.62.47-3.23.7-4.85.48-3.31,1-6.62,1.51-9.92.15-.94.31-1.88.48-2.81s.33-1.88.5-2.81c.58-3.1,1.19-6.19,1.85-9.27q1.17-5.55,2.49-11.07c1.12-4.7,2.28-9.4,3.44-14.1,2.7-11,10.7-17.31,20.27-21.8,16.5-7.75,34-8.34,51.78-6.36,9.12,1,17.56,4.16,25.71,8.17a23.34,23.34,0,0,1,11.71,12c3.1,7.14,4.93,14.7,7.73,21.93.37,1,.64,2,1,2.92.21.54.54,1,1.28.77.54-.18.61-.66.6-1.1,0-.92-.08-1.83-.13-2.75a232.56,232.56,0,0,1,2.7-54.64,10.62,10.62,0,0,1,4.46-7,68,68,0,0,1,19.1-10c11.78-4.11,23.66-7.83,36.3-8.2a22,22,0,0,1,4.44.18c4.11.73,5,2.06,2.94,5.72-6,10.91-7.68,22.88-8.81,35-1.87,20.08.13,40,2.27,60a493.93,493.93,0,0,0,10.49,62.18c2.73,11.45,4.93,23,9.35,34,.39.95.91,1.85,1.38,2.76,1,1.87,2.35,3.08,4.61,2.94s3-1.81,3.64-3.59a286.3,286.3,0,0,0,9.81-32.85q5.69-22.8,9.77-45.95c1.89-10.67,3.74-21.35,4.78-32.2q1.49-15.36,2.08-30.74c.51-12.92-.78-25.83-2.37-38.68-.49-4,.35-4.48,4.32-3.62a122.71,122.71,0,0,1,37,14.69c3.92,2.34,7.63,5,11.33,7.71s5.14,6.26,5.16,10.67c.06,12.37-.48,24.72-1.29,37.06C1071.15,143.2,1071.22,144.54,1071.22,146.1ZM840.35,212.83v0c5.38,0,10.77-.09,16.14,0,2.4.07,3-.8,2.63-3.05-.7-4.74-.85-9.59-1.84-14.26-3.93-18.33-7.65-36.73-13.46-54.6-.73-2.25-1.49-4.53-3.3-6.3-2-2-3.62-1.15-4.68.76a40.67,40.67,0,0,0-2.9,6.94,184.89,184.89,0,0,0-7.41,33.43C824,187,823,198.31,822.27,209.62c-.15,2.62.76,3.35,3.3,3.26C830.49,212.69,835.42,212.83,840.35,212.83Z"/><path class="cls-1" d="M1048.85,471.12c.29-.17.34-1.13.43-1.44.17-.65.36-1.29.55-1.92a29.18,29.18,0,0,1,1.39-3.65,25.69,25.69,0,0,1,3.94-6,26.54,26.54,0,0,1,2.23-2.27,31.11,31.11,0,0,1,12.18-6.72c15.31-4.58,31-5.36,46.88-5,7.78.17,15.61.17,23.23,1.78,7.24,1.53,14.81,2.7,20,8.93,9.3,11.22,16.15,23.88,21.68,37.28,1.31,3.21.93,3.49-2.58,2.89a255.79,255.79,0,0,0-64.63-2.52l-8.22.67c-2.61.21-4,1.67-4,4.25q0,31.75,0,63.5c0,3.54,1.17,4.67,5.22,4.7,11.92.08,23.85,0,35.77.06,3.54,0,7.08.11,10.62.1,3,0,4.27,1.23,4.24,4.38-.13,13.18,0,26.36-.07,39.55,0,3.72-.86,4.47-4.74,4.47h-45c-5.31,0-6.08.65-6,5.85q.15,28.66.44,57.32c0,1.71.24,3.43.42,5.13.59,5.48.61,5.42,5.85,6.39,9,1.68,18.22,1.83,27.37,2.29a332.79,332.79,0,0,0,43.87-.44c4.86-.4,6.16,1.29,4.51,5.86a200.86,200.86,0,0,1-10.75,24.76c-3.53,6.77-7.42,13.3-11.53,19.72-1.44,2.24-2.71,4.29-6.16,4.57-26,2.13-52,2.51-77.82-.69-12-1.49-22.86-6.22-29.14-17.58-4.18-7.56-4.46-16-4.31-24.39.07-4.11-.11-8.23,0-12.34,0-2.22-.62-2.19-2.36-1.31-9.79,5-19.53,10-29.76,14-2.15.85-2.88.85-3.21-1.71a631.63,631.63,0,0,0-12.91-68.19c-4.62-19.3-10.39-38.25-16.87-57a57.23,57.23,0,0,0-6.55-13.2c-2.94-4.41-6.61-8-12.08-9-3-.57-4.4-2.21-4.36-5.43.1-7.44-.19-14.9.46-22.33.41-4.6,1.28-5.76,5.77-6,5.13-.3,9.86-1.9,14.59-3.65,9.94-3.69,14.92-10.94,16.08-21.41A76.23,76.23,0,0,0,991,465.16a36.56,36.56,0,0,0-4.51-10,13.28,13.28,0,0,0-9.14-6.07,35.58,35.58,0,0,0-15.64.43c-6.16,1.6-10.6,8-11.53,16.4-1.56,14-1,28.14-1,42.22,0,27.05,0,54.1.27,81.14.19,20.15.08,40.35,3.17,60.34,1.81,11.7,5.56,22.92,9.94,33.91,2.44,6.15,2.49,6.19-3.76,8-15.07,4.31-30.19,8.5-45.24,12.88-3.47,1-5.42-.11-6.83-3.2a169.56,169.56,0,0,1-15.14-57.87c-2.34-30.67-.93-61.39-1.06-92.09-.15-31.75-.69-63.51.41-95.26.4-11.81,2-23.47,6.87-34.48,7.13-16.11,20.13-24.11,36.87-26.89,13.21-2.19,26.49-1.55,39.76-.51,12.61,1,24.91,3.21,36.79,7.9,15.92,6.28,25.52,18,30.86,33.81a99,99,0,0,1,4.13,17.83c.44,3,.74,6.07,1,9.11a54.29,54.29,0,0,0,.7,6C1048,469.1,1048.47,471.06,1048.85,471.12ZM1046,606.32c2.2-30.66,1-61.12,1.18-91.58a29.44,29.44,0,0,1-3.83,6.51c-5.25,6-10.41,12.16-16.07,17.79-3.21,3.2-4.12,6.31-2.66,10.45,3.31,9.33,6.47,18.71,9.77,28,3,8.49,6.09,17,9.18,25.43C1044,604.09,1044.16,605.44,1046,606.32Z"/></g></svg>