<?xml version="1.0" encoding="utf-8"?>
<!-- Generator: Adobe Illustrator 25.4.1, SVG Export Plug-In . SVG Version: 6.00 Build 0)  -->
<svg version="1.1" xmlns="http://www.w3.org/2000/svg" xmlns:xlink="http://www.w3.org/1999/xlink" x="0px" y="0px"
	 viewBox="0 0 1280 480" style="enable-background:new 0 0 1280 480;" xml:space="preserve">
<style type="text/css">
	.st0{stroke:#231F20;stroke-miterlimit:10;}
	.st1{fill:#EE1E3A;}
</style>
<g id="Layer_2">
	<rect class="st0" width="1280" height="480"/>
</g>
<g id="Layer_1">
	<g>
		<path class="st1" d="M759.1,443c-2.5-0.2-5-0.9-7.4-1.5c-0.2,0-0.3-0.1-0.5-0.1c-3.3-0.9-6.5-1.9-9.7-3.1c-2.6-1-5.2-2-7.7-3.2
			c-9.8-4.7-18.6-10.9-26.7-18.2c-3.8-3.4-4.1-7.7-3.9-12.1c2.2-44.6,1-89.3,1.3-133.9c0.2-25.5,0.1-51.1-1-76.6
			c-0.5-10-1.3-20.1-2-30.1c-0.2-2.3,0.5-3.6,2.7-4.5c15.2-6.2,30.9-11.1,46.7-15.4c15.2-4.1,30.5-7.5,46.2-9.7
			c8.5-1.2,16.2,0.5,23.2,5.3c2,1.3,3.9,2.8,5.8,4.1c1,0.7,2,1.4,3,2c0.4,0.3,2.4,2.1,3,1.6c0.1-0.1,0.1-0.1,0.1-0.2
			c0.4-1,0.3-2.1,0.3-3.1c0-1.2,0-2.3,0-3.5c0-2.4,0-4.8,0-7.2c0-4.7,0-9.5,0-14.2c0-3.6,0-7.2,0-10.9c0-6.8,1.9-8.8,8.7-9.2
			c13-0.8,25.9-0.8,38.9,0.5c3.8,0.4,6.1,2.7,6.1,6.9c0,20.1,0.1,40.2-0.2,60.3c-0.4,20.8-0.2,41.5-0.1,62.3
			c0.1,25.2,0.3,50.4,0.4,75.6c0.1,21.4-0.1,42.8,0.1,64.3c0,3.2-1.2,4.1-4,4.7c-10.8,2.3-21.7,1.6-32.5,1.6
			c-4.6,0-9.2-0.5-13.8-0.7c-2.5-0.1-3.5-1-3.5-3.8c0.2-26.2,0.2-52.4,0.2-78.6c0-33.5-0.2-67-0.1-100.4c0-3.3-1-4.2-4.1-4.1
			c-21.1,0.6-41.8,3.6-62.1,9.8c-8,2.4-8.1,2.5-8.1,10.8c-0.1,12.2,0.1,24.3,0.1,36.5c0,1.7,0.6,2.4,2.3,2.5
			c3.7,0.2,7.4,0.4,11.2,0.1c12.1-0.7,24.1-1.7,36.1-3.5c2.9-0.4,4.1,0.8,4.2,3.6c1,15.2,0.5,30.5,0.6,45.7c0,4.5-1.5,5.9-6.8,5.9
			c-12.3,0.1-24.7,0.1-37,0.1c-5.6,0-5.6,0-5.6,5.7c0,15-0.1,30,0.4,45.1c1,27.9,1.8,55.9,4.2,83.7c0.1,0.9,0.1,1.8,0.1,2.6
			c0,1.7,0.1,3.8-1.4,5c-1,0.8-2.3,1.1-3.5,1.3C761.7,443,760.4,443.1,759.1,443z"/>
		<path class="st1" d="M671,381.5c-16.1,2-32.2,1.7-48.4,1.3c-6.2-0.1-12.3-0.6-18.3-1.9c-0.6-0.1-1.3-0.4-1.8-0.8
			c-0.6-0.5-0.7-1.2-0.8-1.9c-0.3-1.6-0.5-3.3-0.5-5c-0.2-4.8-0.3-9.6-0.5-14.4c-0.2-4.8-0.3-9.7-0.5-14.5
			c-0.2-4.8-0.3-9.7-0.5-14.5c-0.2-4.8-0.3-9.7-0.5-14.5c-0.1-3,0.9-3.8,3.7-3.8c13.6-0.3,27.3-0.9,40.9-1.1c3.2,0,3.8-1.2,4-4
			c0.4-11.8,1-23.6,1.6-35.4c0.3-5.6-0.3-6.2-5.7-6c-13.9,0.4-27.7,0.6-41.6,1.2c-3.2,0.1-4.2-0.8-4.2-4
			c-0.1-10.1-0.6-20.3-0.6-30.4c-0.1-9.8-0.9-19.6-0.1-29.5c0.2-3,1.3-4.2,4.3-4.5c20.1-2.3,40.3-3.1,60.5-0.4
			c4,0.5,5.4-0.6,4.5-4.5c-2.8-12.1-7-23.5-15.8-32.6c-4.9-5.1-10.7-8.5-17.9-8.7c-14.5-0.3-29-0.3-43.5,0.7
			c-7.3,0.5-14.6,1.6-21.8,3.5c-7.5,2.1-12.9,6.4-16,13.6c-1,2.3-1.8,4.6-2.4,7c-0.6,2.4-1,4.9-1.5,7.3c-0.1,0.5-0.3,1.1-0.6,1.5
			c-0.4,0.5-1,0.7-1.3,0.1c-0.3-0.6-0.3-1.3-0.5-1.9c-0.2-0.8-0.4-1.6-0.6-2.3c-0.4-1.6-0.8-3.1-1.3-4.7c-0.8-2.9-1.9-5.6-3.2-8.3
			c-2.6-5.7-6.2-11-10.7-15.5c-4.6-4.6-10-8.4-15.8-11.3c-21.1-10.4-43.3-12.7-66.3-8.1c-11.5,2.3-21.8,7-30.2,15.4
			c-2.1,2.1-3.9,4.6-6,7.2c-2.4-6.5-5-12.4-8.2-18.1c-7.9-14.2-18.5-25.3-34.6-29.9c-11-3.1-22.1-3.1-33.4-1.6
			c-20,2.7-35.6,12.1-46.1,29.6c-1.1,1.9-2.2,3.8-3.2,5.7c-0.5,1-1.1,2-1.6,3c-0.2,0.4-1.4,1.8-1.4,2.2c-0.4-11.6-0.2-23.3-0.9-34.9
			c-0.5-7.4-1.8-15.1-3.5-22.4c-1.7-7.5-4.2-14.8-7.6-21.7c-4.9-9.8-13.6-17.6-24.1-21c-5.7-1.9-12.1-2.9-18-3.1
			c-2-0.1-4.1-0.3-6,0.4c-0.9,0.3-1.8,0.8-2.1,1.8c-0.3,1,0.3,2.1,0,3.1c-1,3.7-1.9,7.4-2.9,11c-1.8,6.7-3.5,13.4-5.3,20.1
			c-1.8,6.7-3.5,13.4-5.3,20.1c-1.7,6.7-3.5,13.4-5.3,20.1c-0.9,3.3-1.8,6.7-2.6,10c-0.4,1.6-0.8,3.2-1.2,4.7
			c-0.4,1.4-0.6,2.8-1,4.2c-0.1,0.3-0.2,0.6-0.5,0.9c-1,1.2-2.1-0.1-2.5-1.1c-0.8-1.9-1.2-3.9-1.8-5.8c-0.9-3.2-2-6.4-2.9-9.6
			c-1-3.3-1.9-6.6-2.9-9.8c-2-6.6-3.9-13.3-5.9-19.9c-2-6.6-3.9-13.3-5.9-19.9c-2-6.6-3.9-13.3-5.9-19.9c-2-6.6-3.9-13.3-5.9-19.9
			c-1.1-3.8-1.2-3.9-4.8-2.1c-10.4,5.2-18.9,12.8-27.1,21c-7.2,7.2-12.4,15.7-15.3,25.6c-2.2,7.8-3.5,15.7-4.5,23.7
			c-3.3,26.8-5.8,53.6-7.2,80.5c-0.8,15.9-1.4,31.8-1.8,47.7c-0.4,15.2-0.9,30.5-0.3,45.7c0.5,13.7,4.9,25.7,14.9,35.3
			c15.2,14.6,34.7,19.3,54.1,24.2c0.7,0.2,1.6,0.3,2.1-0.4c0.5-0.7,0-1.5-0.4-2.1c-10.8-17.7-13.5-37.3-14.2-57.5
			c-0.4-10.5-0.2-21-0.7-31.5c-0.8-17.4,0-34.7,0.1-52c0-1.7-0.3-4,1.9-4.4c2.4-0.4,2.4,2.1,3.1,3.6c0.6,1.4,1.1,2.9,1.5,4.4
			c4,12.9,7.9,25.8,12.8,38.3c3.1,8,7.8,11.1,16.5,10.9c8.1-0.2,13.6-4,16.2-11.7c4.4-13,8.7-26,13-39c0.4-1.2,1-2.4,1.7-3.6
			c0.4-0.8,1.1-1.4,2.1-1.2c1,0.3,1.4,1.1,1.5,2c0.2,2.2,0.4,4.4,0.4,6.6c0.4,22.8-0.1,45.5,0.3,68.3c0.4,20.2,0.1,40.4,0.1,60.7
			c0,4.5,0,4.5,4.4,3.1c11.2-3.5,20.8-10,30.4-16.4c3.1-2.1,5.9-4.7,9.7-6.1c0.5,2.6,1,5,1.3,7.4c3,18.9,9.7,36.2,21.1,51.6
			c6.6,8.9,15.5,14,26.5,15c12.2,1.1,24.4,0.5,36.6,0c14.3-0.6,25.3-7.4,34.3-18c2.4-2.9,4.5-6.1,7.2-9.9c0,6.4,0.2,11.9,0,17.4
			c-0.6,16.3,7.2,27.9,20.3,36.5c11.9,7.8,25.5,11.3,39,14.9c3.7,1,7.5,1.9,11.4,1.7c4.2-0.2,5.3-2,3.9-5.8
			c-0.3-0.9-0.8-1.8-1.2-2.7c-2.6-5-5.3-9.9-7.4-15.2c-6.5-16.4-8.6-33.5-8.9-50.9c-0.4-20.8-0.6-41.5-0.5-62.3
			c0.1-26.3-0.9-52.6,0.2-78.9c0.2-4.9,0.9-9.7,3.2-14.1c2.2-4.4,5.9-6.8,10.7-7.2c9.6-0.8,17.8,3.8,22.1,12.6
			c5.7,11.6,6.4,23.8,3.6,36.2c-1.1,5.1-3.9,9.5-8.5,12.2c-5.4,3.1-11.2,5.2-17.4,6c-5.4,0.7-6.5,1.4-6.9,6.8
			c-0.6,7.4-0.3,14.8-0.3,22.2c0,2.2,1.3,2.5,3,2.7c4.8,0.6,8.3,3.3,11.1,7.1c3.3,4.5,5.8,9.4,7.3,14.8c6.5,22.5,13,45,19.4,67.5
			c5.6,19.6,10.7,39.4,17.6,58.6c1.2,3.5,2,3.8,5.2,1.9c1.9-1.1,3.8-2.1,5.6-3.3c1.6-1,3-2.4,4.8-3c1.8-0.6,3.9-0.5,5.8-0.2
			c2,0.3,3.9,0.6,5.9,0.8c3.9,0.5,7.7,1,11.6,1.4c10.2,1,20.4,1.9,30.7,2.3c18.2,0.8,36.5,2.3,54.8,0.8c4.4-0.4,7-2.3,9.1-5.9
			c8-13.8,13.5-28.7,18.2-43.8C674.5,381.8,673.8,381.1,671,381.5z M370.3,287.1c-1.3,13.9-6.2,26.8-12.9,39.1
			c-1.5,2.8-3.7,5.2-6.1,7.4c-3.6,3.2-6.2,3.2-9.9,0c-4.7-4.1-7.3-9.7-9.9-15.1c-6.6-13.9-10.4-28.6-11.7-43.9
			c-2-22.9-2.1-45.8-1.2-68.8c0.6-15.3,4.1-30,10.1-44c1.9-4.5,4.6-8.8,7.5-12.9c3-4.2,6.7-5,10.7-1.5c13.4,11.5,22,25.5,23.9,43.5
			c1.4,13.9,2.4,27.7,2.4,42.7C373.8,250.8,372,268.9,370.3,287.1z M544.7,334.2c-0.8-0.4-1.3-1.3-1.7-2.1c-2.7-5-4.8-10.1-6.8-15.4
			c-4.6-12.1-9-24.3-13.7-36.4c-1.2-3.1-0.5-5.6,1.8-7.7c6-5.6,12-11.3,18-16.9c0.5-0.4,0.9-1,1.5-1.3c0.4-0.2,0.9-0.2,1.3,0.1
			c0.4,0.3,0.5,0.8,0.6,1.2c0,1.4,0,2.8,0,4.1c0,2.9,0.2,5.7,0.3,8.6c0.1,2.9,0.2,5.8,0.3,8.6c0,0.1,0,0.1,0,0.2
			c0.1,3.2,0.1,6.4,0.2,9.6c0,1.9,0.1,3.9,0.2,5.8c0.1,1.3,0.1,2.6,0.2,3.9c0.2,6.1,0.5,12.2,0.6,18.3c0.1,3.1,0.1,6.1,0.2,9.2
			c0.1,2.8,0.3,5.6,0.2,8.4C547.8,334.1,546.2,335,544.7,334.2z"/>
		<path class="st1" d="M1047.5,142.7c0.3-0.2,0.3-1.1,0.4-1.4c0.2-0.6,0.3-1.2,0.5-1.8c0.4-1.2,0.8-2.4,1.3-3.5
			c1-2.1,2.3-4.1,3.8-5.8c0.7-0.8,1.4-1.5,2.1-2.2c3.5-3.1,7.3-5.2,11.7-6.5c14.7-4.4,29.8-5.2,45-4.8c7.5,0.2,15,0.2,22.3,1.7
			c6.9,1.5,14.2,2.6,19.2,8.6c8.9,10.8,15.5,23,20.8,35.9c1.3,3.1,0.9,3.4-2.5,2.8c-20.6-3.6-41.3-4.1-62.1-2.4
			c-2.6,0.2-5.3,0.4-7.9,0.6c-2.5,0.2-3.8,1.6-3.8,4.1c0,20.4,0,40.8,0.1,61.2c0,3.4,1.1,4.5,5,4.5c11.4,0.1,22.9,0,34.3,0.1
			c3.4,0,6.8,0.1,10.2,0.1c2.9,0,4.1,1.2,4.1,4.2c-0.1,12.7,0,25.4-0.1,38.1c0,3.6-0.8,4.3-4.5,4.3c-14.4,0-28.8,0-43.3,0
			c-5.1,0-5.8,0.6-5.8,5.6c0.1,18.4,0.3,36.8,0.4,55.3c0,1.7,0.2,3.3,0.4,4.9c0.6,5.3,0.6,5.2,5.6,6.2c8.7,1.6,17.5,1.8,26.3,2.2
			c14.1,0.7,28.1,0.7,42.1-0.4c4.7-0.4,5.9,1.3,4.3,5.7c-2.9,8.2-6.3,16.1-10.3,23.9c-3.4,6.5-7.1,12.8-11.1,19
			c-1.4,2.2-2.6,4.1-5.9,4.4c-24.9,2.1-49.9,2.4-74.7-0.7c-11.5-1.4-21.9-6-28-16.9c-4-7.3-4.3-15.4-4.1-23.5c0.1-4-0.1-7.9,0-11.9
			c0-2.1-0.6-2.1-2.3-1.3c-9.4,4.8-18.8,9.6-28.6,13.5c-2.1,0.8-2.8,0.8-3.1-1.7c-2.8-22.2-7.2-44-12.4-65.7
			c-4.4-18.6-10-36.9-16.2-55c-1.6-4.5-3.7-8.8-6.3-12.7c-2.8-4.2-6.3-7.7-11.6-8.7c-2.9-0.6-4.2-2.1-4.2-5.2
			c0.1-7.2-0.2-14.4,0.4-21.5c0.4-4.4,1.2-5.5,5.5-5.8c4.9-0.3,9.5-1.8,14-3.5c9.5-3.6,14.3-10.5,15.4-20.6
			c1.1-9.9,0.4-19.6-2.3-29.1c-1-3.4-2.4-6.6-4.3-9.6c-2.1-3.2-5-5.1-8.8-5.9c-5.1-0.9-10.1-0.9-15,0.4c-5.9,1.5-10.2,7.7-11.1,15.8
			c-1.5,13.5-1,27.1-1,40.7c0,26.1,0,52.2,0.3,78.2c0.2,19.4,0.1,38.9,3,58.2c1.7,11.3,5.3,22.1,9.5,32.7c2.3,5.9,2.4,6-3.6,7.7
			c-14.5,4.2-29,8.2-43.4,12.4c-3.3,1-5.2-0.1-6.6-3.1c-8.1-17.8-13.1-36.3-14.5-55.8c-2.2-29.6-0.9-59.2-1-88.8
			c-0.1-30.6-0.7-61.2,0.4-91.8c0.4-11.4,1.9-22.6,6.6-33.2c6.8-15.5,19.3-23.2,35.4-25.9c12.7-2.1,25.4-1.5,38.2-0.5
			c12.1,1,23.9,3.1,35.3,7.6c15.3,6.1,24.5,17.3,29.6,32.6c1.9,5.6,3.1,11.4,4,17.2c0.4,2.9,0.7,5.8,1,8.8c0.2,1.9,0.3,3.9,0.7,5.8
			C1046.7,140.7,1047.1,142.6,1047.5,142.7z M1044.8,273c2.1-29.6,1-58.9,1.1-88.3c-1.1,2.3-2.1,4.5-3.7,6.3
			c-5,5.8-10,11.7-15.4,17.1c-3.1,3.1-4,6.1-2.6,10.1c3.2,9,6.2,18,9.4,27c2.9,8.2,5.8,16.4,8.8,24.5
			C1042.8,270.9,1043,272.2,1044.8,273z"/>
	</g>
	<g>
		<g>
			<path class="st1" d="M257.1,184.4c7.7,0,7.7-12,0-12C249.4,172.4,249.4,184.4,257.1,184.4L257.1,184.4z"/>
		</g>
	</g>
</g>
</svg>
